#tb 0: 1/25
#media_type 0: video
#codec_id 0: rawvideo
#dimensions 0: 352x288
#sar 0: 0/1
0,          0,          0,        1,   608256, 0x157a44b6
0,          1,          1,        1,   608256, 0x87b804e1
0,          2,          2,        1,   608256, 0xb9efc372
0,          3,          3,        1,   608256, 0xb3fd14b4
0,          4,          4,        1,   608256, 0x7ad9f275
0,          5,          5,        1,   608256, 0x6725b934
0,          6,          6,        1,   608256, 0x14e8f7f1
0,          7,          7,        1,   608256, 0x207dd63c
0,          8,          8,        1,   608256, 0xdf22e3cb
0,          9,          9,        1,   608256, 0x8e95721f
0,         10,         10,        1,   608256, 0x80a2f8e3
0,         11,         11,        1,   608256, 0xfd542dd8
0,         12,         12,        1,   608256, 0x46243d91
0,         13,         13,        1,   608256, 0xe8700c56
0,         14,         14,        1,   608256, 0xfb5ddc96
0,         15,         15,        1,   608256, 0x57f0a725
0,         16,         16,        1,   608256, 0x05d853cd
0,         17,         17,        1,   608256, 0x1ee804e2
0,         18,         18,        1,   608256, 0x537678bf
0,         19,         19,        1,   608256, 0x7b05b450
0,         20,         20,        1,   608256, 0xf0521b83
0,         21,         21,        1,   608256, 0xbef7faa0
0,         22,         22,        1,   608256, 0xfbada9cd
0,         23,         23,        1,   608256, 0x433d0809
0,         24,         24,        1,   608256, 0xca1613f8
0,         25,         25,        1,   608256, 0x6f85279a
0,         26,         26,        1,   608256, 0xdac020f2
0,         27,         27,        1,   608256, 0x9fa3ba07
0,         28,         28,        1,   608256, 0xa64b3daf
0,         29,         29,        1,   608256, 0x4ce5cbbe
0,         30,         30,        1,   608256, 0xad7d4db0
0,         31,         31,        1,   608256, 0x78147857
0,         32,         32,        1,   608256, 0x55c40a78
0,         33,         33,        1,   608256, 0x76ddb9e5
0,         34,         34,        1,   608256, 0x87fafea7
0,         35,         35,        1,   608256, 0x480378e4
0,         36,         36,        1,   608256, 0xc704deb8
0,         37,         37,        1,   608256, 0x2cb15a51
0,         38,         38,        1,   608256, 0x26300b7f
0,         39,         39,        1,   608256, 0xaa8b21b4
0,         40,         40,        1,   608256, 0xe8c03c39
0,         41,         41,        1,   608256, 0x2d735fe2
0,         42,         42,        1,   608256, 0x8c673e16
0,         43,         43,        1,   608256, 0x650f545e
0,         44,         44,        1,   608256, 0x07f14f37
0,         45,         45,        1,   608256, 0xb2edaee8
0,         46,         46,        1,   608256, 0x2897bc4c
0,         47,         47,        1,   608256, 0xa32232f5
0,         48,         48,        1,   608256, 0x27a94672
0,         49,         49,        1,   608256, 0x850f0fb0
